<mxfile host="app.diagrams.net" modified="2023-05-10T17:27:41.180Z" agent="Mozilla/5.0 (X11; Linux x86_64) AppleWebKit/537.36 (KHTML, like Gecko) Chrome/91.0.4472.114 Safari/537.36" version="21.2.9" etag="JEoMnKmSzYRwyAX1XRK3" type="github">
  <diagram name="PÃ¡gina-1" id="ub9bue1tnfWwEyJay1N8">
    <mxGraphModel>
      <root>
        <mxCell id="0" />
        <mxCell id="1" parent="0" />
      </root>
    </mxGraphModel>
  </diagram>
</mxfile>
